<?xml version="1.0" standalone="no"?>
<!DOCTYPE svg PUBLIC "-//W3C//DTD SVG 20010904//EN"
 "http://www.w3.org/TR/2001/REC-SVG-20010904/DTD/svg10.dtd">
<svg version="1.0" xmlns="http://www.w3.org/2000/svg"
 width="800.000000pt" height="800.000000pt" viewBox="0 0 800.000000 800.000000"
 preserveAspectRatio="xMidYMid meet">

<g transform="translate(0.000000,800.000000) scale(0.100000,-0.100000)"
fill="#000000" stroke="none">
<path d="M3740 7989 c-1656 -104 -3087 -1244 -3569 -2841 -235 -779 -222
-1636 35 -2406 258 -772 739 -1441 1391 -1934 1046 -793 2430 -1017 3678 -596
1195 403 2134 1352 2527 2553 329 1010 238 2132 -251 3070 -483 927 -1305
1629 -2291 1958 -483 162 -1004 229 -1520 196z m745 -568 c371 -57 682 -152
1003 -307 965 -464 1652 -1330 1886 -2377 60 -265 70 -373 70 -737 0 -298 -2
-351 -22 -480 -63 -403 -164 -723 -337 -1065 -102 -202 -183 -336 -299 -493
-507 -685 -1223 -1153 -2046 -1336 -272 -60 -378 -70 -740 -70 -299 0 -350 2
-480 22 -405 64 -722 164 -1065 337 -215 108 -341 186 -520 320 -789 592
-1284 1475 -1376 2457 -17 186 -7 614 20 788 89 595 304 1116 656 1585 540
721 1337 1204 2216 1345 218 34 289 39 599 35 239 -2 321 -7 435 -24z"/>
<path d="M3943 6110 c-23 -5 -52 -14 -63 -20 -40 -21 -101 -83 -123 -124 l-22
-41 -3 -1565 -2 -1564 -548 546 c-603 602 -581 584 -707 582 -102 0 -188 -54
-238 -148 -31 -58 -31 -184 0 -241 13 -23 355 -373 815 -832 613 -612 803
-797 838 -812 61 -28 159 -28 220 0 35 15 225 200 838 812 460 459 802 809
815 832 31 57 31 183 0 241 -50 94 -136 148 -238 148 -125 2 -104 20 -707
-582 l-548 -546 -2 1564 -3 1565 -22 41 c-25 48 -92 111 -137 129 -44 18 -114
24 -163 15z"/>
</g>
</svg>
